Wickie und die Starken Männer (2009) Alternatieve titels: Vicky the Viking, Wickie und die Starken Männer - Der Pfeil, Wickie de Viking 

Vanaf 13 Oktober te huur in de videotheek.

Duitsland
Avontuur / Familie
85 minuten

geregisseerd door Michael Herbig
met Jonas Hämmerle, Waldemar Kobus en Günther Kaufmann

Met de stemmen van o.a. Kristel van K3, Ralf Mackenbachen Frans Bauer!

Wickie is een jonge Viking, die leeft met zijn ouders Halvar en Ylva in het kleine dorpje Flake. Hij is een normale Vikingsjongen, maar nogal bang. Ook is hij niet sterk, maar wel slim. Op een dag gaat hij met de volwassen Vikingen mee en beleeft hij een avontuur.
 
http://www.imdb.com/title/tt1167599/
 
http://www.moviemeter.nl/film/56460

Nederlands gesproken. Geen ondertitels.

Hoesjes bijgevoegd.

General
Complete name                    : Wickie de Viking-AC3-XviD-DVDRip[Ned]2009 2Lions-Team\Wickie de Viking-AC3-XviD-DVDRip[Ned]2009 2Lions-Team.avi
Format                           : AVI
Format/Info                      : Audio Video Interleave
File size                        : 1.36 GiB
Duration                         : 1h 24mn
Overall bit rate                 : 2 307 Kbps
Writing application              : VirtualDubMod 1.5.4.1 (build 2178/release)
Writing library                  : VirtualDubMod build 2178/release

Video
ID                               : 0
Format                           : MPEG-4 Visual
Format profile                   : Simple@L3
Format settings, BVOP            : No
Format settings, QPel            : No
Format settings, GMC             : No warppoints
Format settings, Matrix          : Default (H.263)
Codec ID                         : XVID
Codec ID/Hint                    : XviD
Duration                         : 1h 24mn
Bit rate                         : 1 850 Kbps
Width                            : 720 pixels
Height                           : 304 pixels
Display aspect ratio             : 2.35:1
Frame rate                       : 25.000 fps
Color space                      : YUV
Chroma subsampling               : 4:2:0
Bit depth                        : 8 bits
Scan type                        : Progressive
Bits/(Pixel*Frame)               : 0.338
Stream size                      : 1.09 GiB (80%)
Writing library                  : XviD 1.1.2 (UTC 2006-11-01)

Audio
ID                               : 1
Format                           : AC-3
Format/Info                      : Audio Coding 3
Mode extension                   : CM (complete main)
Codec ID                         : 2000
Duration                         : 1h 24mn
Bit rate mode                    : Constant
Bit rate                         : 448 Kbps
Channel(s)                       : 6 channels
Channel positions                : Front: L C R, Side: L R, LFE
Sampling rate                    : 48.0 KHz
Bit depth                        : 16 bits
Stream size                      : 270 MiB (19%)
Alignment                        : Split accross interleaves
Interleave, duration             : 40 ms (1.00 video frame)
Interleave, preload duration     : 500 ms

Met dank aan Bradje voor de DVD5 bron.

Brought to you by 
2Lions Team

meer zien??
                   
Kom dan eens kijken op ons NIEUWE forum 
            
http://www.2lions-site.nl/

2Lions the site to be for all your Dutch MOVIES and more

******************************************

DON T HIT AND RUN Niet gelijk afhaken als de FILM binnen is blijf seeden. 

Don`t quit after you finished the download, but keep seeding

There are fake torrents from uploaders who use our team name.
Those are not ours, or members from our team.
We 2Lions-Team are not responsible for the fake posts on our name

Wij 2Lions-Team zijn niet verantwoordelijk voor die zieke FAKE posten die op onze naam worden gedaan

Please check our site !!!

to the fakers , get a life !!!